<svg width="80" height="90" viewBox="0 0 80 90" fill="none" xmlns="http://www.w3.org/2000/svg">
<path d="M34.9727 1.97962C38.0836 0.18355 41.9164 0.183552 45.0273 1.97962L73.6474 18.5035L0 41.9853V27.9761C0 24.384 1.91638 21.0647 5.02727 19.2686L34.9727 1.97962Z" fill="#1E40AF"/>
<path d="M0 62.0915L76.8379 20.6554C78.8314 22.5323 80 25.171 80 27.9761V28.7777L3.39561 70.0879C1.26018 68.2006 0 65.4671 0 62.5542V62.0915Z" fill="#1E40AF"/>
<path d="M6.57618 72.1559L34.9727 88.5507C38.0836 90.3468 41.9164 90.3468 45.0273 88.5507L74.9727 71.2617C78.0836 69.4656 80 66.1463 80 62.5542V48.7454L6.57618 72.1559Z" fill="#1E40AF"/>
</svg>
